<svg width="13" height="15" viewBox="0 0 13 15" fill="none" xmlns="http://www.w3.org/2000/svg">
<path d="M6.50016 1.83329C7.67175 1.83329 8.62516 2.78671 8.62516 3.95829H10.0418C10.0418 2.00542 8.45304 0.416626 6.50016 0.416626C4.54729 0.416626 2.9585 2.00542 2.9585 3.95829V5.37496H2.25016C1.46887 5.37496 0.833496 6.01033 0.833496 6.79163V13.1666C0.833496 13.9479 1.46887 14.5833 2.25016 14.5833H10.7502C11.5315 14.5833 12.1668 13.9479 12.1668 13.1666V6.79163C12.1668 6.01033 11.5315 5.37496 10.7502 5.37496H4.37516V3.95829C4.37516 2.78671 5.32858 1.83329 6.50016 1.83329ZM10.7516 13.1666H7.2085V11.553C7.62995 11.3073 7.91683 10.8553 7.91683 10.3333C7.91683 9.552 7.28145 8.91663 6.50016 8.91663C5.71887 8.91663 5.0835 9.552 5.0835 10.3333C5.0835 10.8546 5.37037 11.3073 5.79183 11.553V13.1666H2.25016V6.79163H10.7502L10.7516 13.1666Z" fill="white"/>
</svg>
