<svg width="19" height="20" viewBox="0 0 19 20" fill="none" xmlns="http://www.w3.org/2000/svg">
<path d="M1 8.7751C1 7.81615 1.45843 6.91499 2.23351 6.35033L7.81115 2.28692C8.86393 1.51995 10.2913 1.51995 11.3441 2.28692L16.9218 6.35033C17.6968 6.91499 18.1553 7.81615 18.1553 8.7751V17C18.1553 18.1046 17.2598 19 16.1553 19H3C1.89543 19 1 18.1046 1 17V8.7751Z" stroke="#2979F2" stroke-width="1.5" stroke-linejoin="round"/>
<path d="M6.71387 13.9779C6.71387 12.3964 7.99596 11.1143 9.5775 11.1143C11.159 11.1143 12.4411 12.3964 12.4411 13.9779V19H6.71387V13.9779Z" fill="#E0E1EF" stroke="#2979F2" stroke-width="1.5" stroke-linejoin="round"/>
<path d="M8.35059 7.03857H10.8051" stroke="#2979F2" stroke-width="1.5" stroke-linecap="round" stroke-linejoin="round"/>
</svg>
