<svg width="14" height="16" viewBox="0 0 14 16" fill="none" xmlns="http://www.w3.org/2000/svg">
<path d="M7.99875 15L7.99875 3.14L12.3587 6.77C12.563 6.93974 12.8262 7.0214 13.0907 6.99702C13.3551 6.97264 13.599 6.84422 13.7687 6.64C13.9385 6.43578 14.0201 6.1725 13.9958 5.90808C13.9714 5.64365 13.843 5.39974 13.6387 5.23L7.63875 0.23C7.59102 0.19636 7.54089 0.166279 7.48875 0.14C7.43875 0.14 7.40875 0.14 7.35875 0.0699999C7.24409 0.0246734 7.12204 0.000940821 6.99875 -3.06034e-07C6.87546 0.00094081 6.75341 0.0246733 6.63875 0.0699998C6.58875 0.0699998 6.55875 0.0699995 6.50875 0.14C6.45661 0.166279 6.40647 0.19636 6.35875 0.23L0.358748 5.23C0.245866 5.32402 0.155085 5.44176 0.0928638 5.57485C0.0306423 5.70793 -0.00149085 5.85309 -0.00125244 6C-0.00170926 6.23365 0.0796659 6.46009 0.228747 6.64C0.312696 6.74126 0.415798 6.82496 0.532145 6.88631C0.648493 6.94766 0.775798 6.98546 0.906775 6.99754C1.03775 7.00961 1.16982 6.99573 1.29543 6.95669C1.42103 6.91764 1.5377 6.8542 1.63875 6.77L5.99875 3.14L5.99875 15C5.99875 15.2652 6.1041 15.5196 6.29164 15.7071C6.47918 15.8946 6.73353 16 6.99875 16C7.26396 16 7.51832 15.8946 7.70585 15.7071C7.89339 15.5196 7.99875 15.2652 7.99875 15Z" fill="white"/>
</svg>
